<svg xmlns="http://www.w3.org/2000/svg" width="512" height="512" viewBox="0 0 512 512">
  <defs>
    <linearGradient id="bg" x1="0" y1="0" x2="1" y2="1">
      <stop offset="0" stop-color="#FF8A3D"/>
      <stop offset="1" stop-color="#F2620E"/>
    </linearGradient>
  </defs>
  <rect width="512" height="512" rx="120" fill="url(#bg)"/>
  <!-- 育つ芽（習慣の成長） -->
  <g transform="translate(256 296)">
    <!-- 鉢 -->
    <path d="M-92 24 h184 l-22 96 a28 28 0 0 1 -27 22 h-86 a28 28 0 0 1 -27 -22 z" fill="#fff" opacity="0.95"/>
    <!-- 茎 -->
    <rect x="-10" y="-96" width="20" height="124" rx="10" fill="#fff"/>
    <!-- 左の葉 -->
    <path d="M-8 -34 C-70 -54 -96 -110 -86 -150 C-40 -150 0 -104 -8 -44 Z" fill="#fff"/>
    <!-- 右の葉 -->
    <path d="M8 -58 C58 -82 78 -138 70 -178 C26 -174 -2 -120 8 -68 Z" fill="#fff"/>
  </g>
  <!-- チェック -->
  <g transform="translate(360 150)">
    <circle r="58" fill="#22A877"/>
    <path d="M-26 2 L-8 22 L28 -22" fill="none" stroke="#fff" stroke-width="16" stroke-linecap="round" stroke-linejoin="round"/>
  </g>
</svg>
